<svg xmlns="http://www.w3.org/2000/svg" viewBox="0 0 64 64" role="img" aria-label="CorpHackRyan favicon">
  <defs>
    <linearGradient id="g" x1="0" y1="0" x2="1" y2="1">
      <stop offset="0%" stop-color="#0052ff" />
      <stop offset="100%" stop-color="#00a6a6" />
    </linearGradient>
  </defs>
  <rect width="64" height="64" rx="14" fill="#0f1424" />
  <path d="M16 16h18c9 0 14 4 14 11 0 4-2 7-6 9 5 2 8 5 8 11 0 8-6 13-16 13H16V16zm12 18h4c4 0 6-2 6-5 0-3-2-5-6-5h-4v10zm0 18h6c4 0 7-2 7-6 0-4-3-6-7-6h-6v12z" fill="url(#g)" />
</svg>
